# xmcd
#
# Track frame offsets:
#	150
#	10037
#	24696
#	44972
#	60583
#	82081
#	94906
#	117041
#	139920
#	160296
#	178892
#	198850
#	235252
#
# Disc length: 3432 seconds
# Revision: 0
# Processed by: cddbd v1.5.2PL0 Copyright (c) Steve Scherf et al.
# Submitted via: dBpowerAMP V12.0
#
DISCID=b30d660d
DTITLE=Various Artist - Lonesome Panoramic
DYEAR=2018
DGENRE=Americana
TTITLE0=Hot Buttered Rum - You Can Tell
TTITLE1=Hot Buttered Rum - Sittin Here Alone
TTITLE2=Hot Buttered Rum feat. The Coffis Brothers - Country Tunes and Loves Songs
TTITLE3=Hot Buttered Rum - How Short the Song
TTITLE4=Hot Buttered Rum - Treasure Island Blues
TTITLE5=Hot Buttered Rum - Never Got Married
TTITLE6=Hot Buttered Rum feat. Rainbow Girls - The Spirits Still Come
TTITLE7=Hot Buttered Rum - Sleeping Giants
TTITLE8=Hot Buttered Rum - Leaving Dallas
TTITLE9=Hot Buttered Rum - When That Lonesome Feeling Comes
TTITLE10=Hot Buttered Rum - Mighty Fine
TTITLE11=Hot Buttered Rum - The One That Everybody Knows
TTITLE12=Hot Buttered Rum feat. ALO - The Deep End
EXTD=
EXTT0=
EXTT1=
EXTT2=
EXTT3=
EXTT4=
EXTT5=
EXTT6=
EXTT7=
EXTT8=
EXTT9=
EXTT10=
EXTT11=
EXTT12=
PLAYORDER=
